<svg width="16" height="16" viewBox="0 0 16 16" fill="none" xmlns="http://www.w3.org/2000/svg">
<path d="M10.0748 15.5V14.45C11.4581 13.9666 12.5748 13.1333 13.4248 11.95C14.2748 10.7666 14.6998 9.44162 14.6998 7.97495C14.6998 6.50829 14.2748 5.18328 13.4248 3.99995C12.5748 2.81662 11.4581 1.98328 10.0748 1.49995V0.449951C11.7248 0.983285 13.0748 1.93728 14.1248 3.31195C15.1748 4.68728 15.6998 6.24162 15.6998 7.97495C15.6998 9.70829 15.1748 11.2623 14.1248 12.637C13.0748 14.0123 11.7248 14.9666 10.0748 15.5ZM0.299805 9.99995V5.99995H3.7248L7.2998 2.42495V13.575L3.7248 9.99995H0.299805ZM10.0748 11.3V4.64995C10.6415 5.01662 11.0708 5.49995 11.3628 6.09995C11.6541 6.69995 11.7998 7.33328 11.7998 7.99995C11.7998 8.66662 11.6498 9.29162 11.3498 9.87495C11.0498 10.4583 10.6248 10.9333 10.0748 11.3ZM6.2998 4.84995L4.1498 6.99995H1.2998V8.99995H4.1498L6.2998 11.15V4.84995Z" fill="#FF745A"/>
</svg>
